<svg width="5537" height="1546" viewBox="0 0 5537 1546" fill="none" xmlns="http://www.w3.org/2000/svg">
<path fill-rule="evenodd" clip-rule="evenodd" d="M343.547 1100.51C402.265 1123.35 468.594 1134.77 542.535 1134.77C616.476 1134.77 682.806 1123.35 741.524 1100.51C801.329 1076.59 852.435 1043.43 894.843 1001.02C938.337 957.525 971.502 905.875 994.337 846.069C1017.17 785.177 1028.59 717.216 1028.59 642.188V498.024C1075.28 578.95 1102 672.855 1102 773C1102 1077.31 855.309 1324 551 1324C246.691 1324 0 1077.31 0 773C0 680.549 22.7692 593.416 63.0058 516.903V642.188C63.0058 717.216 73.8794 785.177 95.6268 846.069C118.462 905.875 150.539 957.525 191.859 1001.02C234.266 1044.51 284.829 1077.68 343.547 1100.51ZM261.994 303.786C346.015 251.925 445.013 222 551 222C652.644 222 747.859 249.522 829.6 297.521V634.033C829.6 699.275 817.639 755.818 793.717 803.662C770.883 850.419 738.262 886.846 695.854 912.943C653.447 939.039 603.428 952.088 545.797 952.088C488.167 952.088 438.148 939.039 395.74 912.943C353.333 886.846 320.168 850.419 296.246 803.662C273.412 755.818 261.994 699.275 261.994 634.033V303.786ZM401.987 655.176C401.987 572.879 468.703 506.164 551 506.164C633.297 506.164 700.013 572.879 700.013 655.176C700.013 737.473 633.297 804.189 551 804.189C468.703 804.189 401.987 737.473 401.987 655.176Z" fill="#1733FE"/>
<path d="M1837.54 1221.17C1788.5 1221.17 1742.23 1214.05 1698.72 1199.81C1656.01 1185.57 1616.85 1165.4 1581.25 1139.29C1546.45 1112.4 1516.39 1080.76 1491.08 1044.37C1465.77 1007.99 1445.99 967.248 1431.75 922.16C1418.3 877.072 1411.58 828.82 1411.58 777.403C1411.58 725.987 1418.3 677.735 1431.75 632.647C1445.99 587.559 1465.77 546.821 1491.08 510.434C1516.39 473.256 1546.84 441.22 1582.44 414.325C1618.04 387.431 1657.19 366.864 1699.91 352.626C1743.41 338.387 1789.69 331.268 1838.73 331.268C1887.77 331.268 1933.65 338.387 1976.37 352.626C2019.87 366.864 2059.03 387.431 2093.83 414.325C2129.43 440.429 2159.89 471.674 2185.2 508.061C2210.51 544.448 2229.89 585.185 2243.34 630.274C2256.79 675.362 2263.51 723.614 2263.51 775.03C2263.51 826.447 2256.39 874.699 2242.15 919.787C2228.7 964.875 2209.32 1006.01 2184.01 1043.19C2158.7 1079.57 2128.24 1111.21 2092.65 1138.11C2057.84 1165 2018.69 1185.57 1975.18 1199.81C1932.47 1214.05 1886.59 1221.17 1837.54 1221.17ZM1837.54 1088.27C1877.89 1088.27 1914.67 1080.76 1947.89 1065.73C1981.91 1049.91 2011.17 1028.16 2035.69 1000.47C2060.22 972.785 2079.2 939.958 2092.65 901.989C2106.89 863.229 2114.01 821.305 2114.01 776.217C2114.01 731.129 2106.89 689.6 2092.65 651.631C2079.2 612.871 2060.22 579.648 2035.69 551.963C2011.17 524.277 1981.91 502.919 1947.89 487.89C1914.67 472.07 1877.89 464.159 1837.54 464.159C1797.2 464.159 1760.02 472.07 1726.01 487.89C1692.79 502.919 1663.92 524.277 1639.39 551.963C1614.87 579.648 1595.49 612.871 1581.25 651.631C1567.81 689.6 1561.08 731.129 1561.08 776.217C1561.08 821.305 1567.81 863.229 1581.25 901.989C1595.49 939.958 1614.87 972.785 1639.39 1000.47C1663.92 1028.16 1692.79 1049.91 1726.01 1065.73C1760.02 1080.76 1797.2 1088.27 1837.54 1088.27ZM2664.05 1215.23C2608.67 1215.23 2560.42 1203.37 2519.29 1179.64C2478.95 1155.91 2447.31 1122.29 2424.37 1078.78C2402.22 1034.48 2391.14 982.673 2391.14 923.346V576.88H2527.59V925.72C2527.59 977.136 2539.86 1017.87 2564.38 1047.93C2588.9 1077.2 2622.52 1091.83 2665.23 1091.83C2707.95 1091.83 2741.57 1077.2 2766.09 1047.93C2790.61 1017.87 2802.87 977.136 2802.87 925.72V576.88H2939.32V923.346C2939.32 981.882 2927.85 1033.3 2904.91 1077.6C2882.76 1121.1 2851.12 1155.12 2809.99 1179.64C2768.86 1203.37 2720.21 1215.23 2664.05 1215.23ZM3086.38 1197.43V576.88H3210.96L3216.89 678.921C3232.71 644.116 3254.47 617.222 3282.15 598.237C3310.63 578.462 3343.85 568.574 3381.82 568.574C3393.69 568.574 3405.16 569.365 3416.23 570.947C3427.31 572.529 3437.19 575.298 3445.89 579.253L3430.47 712.144C3421.77 708.98 3412.67 707.003 3403.18 706.211C3393.69 704.629 3384.2 703.838 3374.7 703.838C3327.24 703.838 3290.06 719.659 3263.17 751.3C3236.27 782.94 3222.83 826.842 3222.83 883.004V1197.43H3086.38Z" fill="#1733FE"/>
<path d="M3555.88 1197.43V354.999H3700.64V1068.1H4057.78V1197.43H3555.88ZM4333.22 403.646C4333.22 418.676 4329.26 432.519 4321.35 445.175C4314.23 457.831 4304.34 468.115 4291.69 476.025C4279.03 483.144 4265.19 486.704 4250.16 486.704C4235.13 486.704 4221.29 483.144 4208.63 476.025C4195.97 468.115 4185.69 457.831 4177.78 445.175C4170.66 432.519 4167.1 418.676 4167.1 403.646C4167.1 388.617 4170.66 374.774 4177.78 362.118C4185.69 349.462 4195.97 339.574 4208.63 332.455C4221.29 324.544 4235.13 320.589 4250.16 320.589C4265.19 320.589 4279.03 324.544 4291.69 332.455C4304.34 339.574 4314.23 349.462 4321.35 362.118C4329.26 374.774 4333.22 388.617 4333.22 403.646ZM4182.53 1197.43V576.88H4318.98V1197.43H4182.53ZM4522.18 1197.43V687.227H4413.02V576.88H4522.18V532.978C4522.18 487.099 4531.67 447.153 4550.66 413.139C4569.64 378.334 4595.74 351.439 4628.97 332.455C4662.19 312.679 4700.16 302.791 4742.87 302.791C4767.4 302.791 4789.54 305.956 4809.32 312.284C4829.89 317.821 4848.08 324.94 4863.9 333.641L4833.05 438.056C4822.77 432.519 4810.9 428.168 4797.45 425.004C4784.8 421.049 4772.14 419.071 4759.49 419.071C4725.47 419.071 4700.16 429.75 4683.55 451.108C4666.94 471.674 4658.63 501.337 4658.63 540.097V576.88H4836.61V687.227H4658.63V1197.43H4522.18ZM5208.96 1215.23C5163.08 1215.23 5120.76 1207.32 5082 1191.5C5044.03 1174.89 5010.81 1151.95 4982.33 1122.68C4953.85 1093.42 4931.71 1059.01 4915.88 1019.46C4900.86 979.113 4893.34 934.816 4893.34 886.564C4893.34 839.894 4900.86 796.783 4915.88 757.232C4931.71 717.681 4953.06 683.272 4979.96 654.004C5007.64 623.945 5040.07 600.61 5077.25 583.999C5114.43 567.388 5154.77 559.082 5198.28 559.082C5241.78 559.082 5281.34 566.992 5316.93 582.812C5353.32 597.842 5384.56 619.595 5410.67 648.072C5437.56 676.548 5458.13 710.562 5472.37 750.113C5486.61 788.873 5493.72 831.984 5493.72 879.445V919.787H5034.54C5038.49 956.174 5047.98 987.815 5063.01 1014.71C5078.83 1040.81 5099.01 1060.98 5123.53 1075.22C5148.05 1089.46 5176.53 1096.58 5208.96 1096.58C5273.82 1096.58 5324.45 1067.71 5360.83 1009.96L5480.67 1056.24C5466.43 1088.67 5445.47 1117.15 5417.79 1141.67C5390.89 1165.4 5359.25 1183.59 5322.86 1196.25C5287.27 1208.9 5249.3 1215.23 5208.96 1215.23ZM5198.28 669.429C5170.59 669.429 5145.68 675.757 5123.53 688.414C5102.17 701.07 5083.98 718.868 5068.95 741.807C5053.92 764.747 5043.63 791.642 5038.1 822.491H5351.34C5346.59 791.642 5337.5 764.747 5324.05 741.807C5310.6 718.868 5292.81 701.07 5270.66 688.414C5249.3 675.757 5225.17 669.429 5198.28 669.429Z" fill="#3E3E3E"/>
</svg>
